<svg width="117" height="24" viewBox="0 0 117 24" fill="none" xmlns="http://www.w3.org/2000/svg">
<path d="M5.55709 5.738H8.27509L9.60709 9.824L10.9391 5.738H13.6751L11.4971 11.678L12.7931 15.08L15.9971 5.72H19.2191L14.2331 18.5H11.6771L9.60709 13.496L7.55509 18.5H4.98109L0.0130937 5.72H3.21709L6.43909 15.08L7.69909 11.678L5.55709 5.738ZM29.8515 15.908V18.5H20.8695V5.72H29.6895V8.312H23.8215V10.796H28.8615V13.19H23.8215V15.908H29.8515ZM42.7509 15.224C42.7509 15.956 42.5529 16.568 42.1569 17.06C41.7729 17.54 41.2509 17.9 40.5909 18.14C39.9309 18.38 39.2049 18.5 38.4129 18.5H32.1849V5.72H39.2949C39.8949 5.72 40.4109 5.882 40.8429 6.206C41.2869 6.518 41.6229 6.926 41.8509 7.43C42.0909 7.934 42.2109 8.456 42.2109 8.996C42.2109 9.596 42.0549 10.172 41.7429 10.724C41.4309 11.264 40.9749 11.672 40.3749 11.948C41.1069 12.164 41.6829 12.548 42.1029 13.1C42.5349 13.652 42.7509 14.36 42.7509 15.224ZM39.7449 14.63C39.7449 14.354 39.6909 14.114 39.5829 13.91C39.4749 13.694 39.3309 13.526 39.1509 13.406C38.9829 13.274 38.7789 13.208 38.5389 13.208H35.1369V15.998H38.4129C38.6649 15.998 38.8869 15.938 39.0789 15.818C39.2829 15.698 39.4449 15.536 39.5649 15.332C39.6849 15.128 39.7449 14.894 39.7449 14.63ZM35.1369 8.24V10.886H38.0349C38.2509 10.886 38.4489 10.838 38.6289 10.742C38.8209 10.646 38.9769 10.502 39.0969 10.31C39.2169 10.106 39.2769 9.854 39.2769 9.554C39.2769 9.266 39.2229 9.026 39.1149 8.834C39.0189 8.642 38.8869 8.498 38.7189 8.402C38.5509 8.294 38.3589 8.24 38.1429 8.24H35.1369Z" fill="#4D5AE5"/>
<path d="M53.0131 9.464C52.9771 9.404 52.8511 9.314 52.6351 9.194C52.4191 9.062 52.1491 8.924 51.8251 8.78C51.5011 8.636 51.1471 8.51 50.7631 8.402C50.3791 8.294 49.9951 8.24 49.6111 8.24C49.1071 8.24 48.7171 8.33 48.4411 8.51C48.1651 8.678 48.0271 8.942 48.0271 9.302C48.0271 9.59 48.1291 9.818 48.3331 9.986C48.5491 10.154 48.8551 10.304 49.2511 10.436C49.6471 10.556 50.1331 10.7 50.7091 10.868C51.5251 11.084 52.2331 11.348 52.8331 11.66C53.4331 11.96 53.8891 12.35 54.2011 12.83C54.5251 13.31 54.6871 13.946 54.6871 14.738C54.6871 15.458 54.5551 16.07 54.2911 16.574C54.0271 17.066 53.6671 17.468 53.2111 17.78C52.7671 18.08 52.2571 18.302 51.6811 18.446C51.1051 18.578 50.5111 18.644 49.8991 18.644C49.2751 18.644 48.6331 18.584 47.9731 18.464C47.3251 18.332 46.7011 18.152 46.1011 17.924C45.5011 17.684 44.9491 17.396 44.4451 17.06L45.7411 14.486C45.7891 14.546 45.9451 14.66 46.2091 14.828C46.4731 14.984 46.7971 15.152 47.1811 15.332C47.5771 15.5 48.0151 15.65 48.4951 15.782C48.9751 15.914 49.4611 15.98 49.9531 15.98C50.4811 15.98 50.8711 15.896 51.1231 15.728C51.3871 15.56 51.5191 15.326 51.5191 15.026C51.5191 14.702 51.3811 14.45 51.1051 14.27C50.8411 14.09 50.4751 13.928 50.0071 13.784C49.5511 13.64 49.0231 13.478 48.4231 13.298C47.6431 13.058 46.9951 12.788 46.4791 12.488C45.9751 12.188 45.5971 11.822 45.3451 11.39C45.1051 10.958 44.9851 10.418 44.9851 9.77C44.9851 8.87 45.1951 8.114 45.6151 7.502C46.0471 6.878 46.6231 6.41 47.3431 6.098C48.0631 5.774 48.8491 5.612 49.7011 5.612C50.3011 5.612 50.8771 5.684 51.4291 5.828C51.9931 5.972 52.5151 6.152 52.9951 6.368C53.4871 6.584 53.9251 6.8 54.3091 7.016L53.0131 9.464ZM66.6973 8.312H62.8093V18.5H59.8573V8.312H55.9513V5.72H66.6973V8.312ZM74.169 18.608C73.149 18.608 72.279 18.44 71.559 18.104C70.839 17.756 70.251 17.288 69.795 16.7C69.351 16.1 69.021 15.422 68.805 14.666C68.601 13.898 68.499 13.094 68.499 12.254V5.72H71.451V12.254C71.451 12.734 71.499 13.202 71.595 13.658C71.691 14.102 71.847 14.498 72.063 14.846C72.279 15.194 72.555 15.47 72.891 15.674C73.239 15.878 73.665 15.98 74.169 15.98C74.685 15.98 75.117 15.878 75.465 15.674C75.813 15.458 76.089 15.176 76.293 14.828C76.497 14.468 76.647 14.066 76.743 13.622C76.839 13.178 76.887 12.722 76.887 12.254V5.72H79.839V12.254C79.839 13.142 79.725 13.97 79.497 14.738C79.281 15.506 78.945 16.184 78.489 16.772C78.033 17.348 77.445 17.798 76.725 18.122C76.017 18.446 75.165 18.608 74.169 18.608ZM82.6663 18.5V5.72H87.4363C88.8403 5.72 90.0103 6.008 90.9463 6.584C91.8943 7.148 92.6083 7.916 93.0883 8.888C93.5683 9.848 93.8083 10.916 93.8083 12.092C93.8083 13.388 93.5443 14.516 93.0163 15.476C92.4883 16.436 91.7443 17.18 90.7843 17.708C89.8363 18.236 88.7203 18.5 87.4363 18.5H82.6663ZM90.8023 12.092C90.8023 11.348 90.6703 10.694 90.4063 10.13C90.1423 9.554 89.7583 9.11 89.2543 8.798C88.7503 8.474 88.1443 8.312 87.4363 8.312H85.6183V15.908H87.4363C88.1563 15.908 88.7623 15.746 89.2543 15.422C89.7583 15.086 90.1423 14.63 90.4063 14.054C90.6703 13.466 90.8023 12.812 90.8023 12.092ZM96.091 18.5V5.72H99.043V18.5H96.091ZM107.626 18.608C106.666 18.608 105.796 18.428 105.016 18.068C104.248 17.696 103.582 17.204 103.018 16.592C102.466 15.968 102.04 15.272 101.74 14.504C101.44 13.724 101.29 12.92 101.29 12.092C101.29 11.24 101.446 10.43 101.758 9.662C102.082 8.894 102.526 8.21 103.09 7.61C103.666 6.998 104.344 6.518 105.124 6.17C105.904 5.822 106.756 5.648 107.68 5.648C108.628 5.648 109.486 5.834 110.254 6.206C111.034 6.566 111.7 7.058 112.252 7.682C112.816 8.306 113.248 9.008 113.548 9.788C113.848 10.556 113.998 11.342 113.998 12.146C113.998 12.998 113.842 13.808 113.53 14.576C113.218 15.344 112.774 16.034 112.198 16.646C111.622 17.246 110.944 17.726 110.164 18.086C109.396 18.434 108.55 18.608 107.626 18.608ZM104.296 12.128C104.296 12.62 104.368 13.1 104.512 13.568C104.656 14.024 104.866 14.432 105.142 14.792C105.43 15.152 105.784 15.44 106.204 15.656C106.624 15.872 107.104 15.98 107.644 15.98C108.208 15.98 108.7 15.872 109.12 15.656C109.54 15.428 109.888 15.128 110.164 14.756C110.44 14.384 110.644 13.97 110.776 13.514C110.92 13.046 110.992 12.572 110.992 12.092C110.992 11.6 110.92 11.126 110.776 10.67C110.632 10.214 110.416 9.806 110.128 9.446C109.84 9.074 109.486 8.786 109.066 8.582C108.646 8.378 108.172 8.276 107.644 8.276C107.08 8.276 106.588 8.384 106.168 8.6C105.76 8.816 105.412 9.11 105.124 9.482C104.848 9.842 104.638 10.256 104.494 10.724C104.362 11.18 104.296 11.648 104.296 12.128Z" fill="#F4F4FD"/>
</svg>
