<svg width="18" height="19" viewBox="0 0 18 19" fill="none" xmlns="http://www.w3.org/2000/svg">
<g filter="url(#filter0_d_297094_2114)">
<path d="M14.7263 8.86511L12.8881 8.65525C12.4467 8.60459 12.0125 8.75656 11.7013 9.06775L10.3697 10.3993C8.3217 9.35722 6.64276 7.68551 5.60067 5.63025L6.93947 4.29144C7.25065 3.98025 7.40263 3.54605 7.35197 3.1046L7.1421 1.28092C7.05526 0.549999 6.44013 0 5.70198 0H4.45002C3.63226 0 2.952 0.680262 3.00266 1.49802C3.38621 7.67827 8.32894 12.6138 14.5019 12.9973C15.3197 13.048 15.9999 12.3677 15.9999 11.55V10.298C16.0072 9.56709 15.4572 8.95196 14.7263 8.86511Z" fill="#2E2F42"/>
</g>
<defs>
<filter id="filter0_d_297094_2114" x="-1" y="0" width="21" height="21" filterUnits="userSpaceOnUse" color-interpolation-filters="sRGB">
<feFlood flood-opacity="0" result="BackgroundImageFix"/>
<feColorMatrix in="SourceAlpha" type="matrix" values="0 0 0 0 0 0 0 0 0 0 0 0 0 0 0 0 0 0 127 0" result="hardAlpha"/>
<feOffset dy="4"/>
<feGaussianBlur stdDeviation="2"/>
<feComposite in2="hardAlpha" operator="out"/>
<feColorMatrix type="matrix" values="0 0 0 0 0 0 0 0 0 0 0 0 0 0 0 0 0 0 0.25 0"/>
<feBlend mode="normal" in2="BackgroundImageFix" result="effect1_dropShadow_297094_2114"/>
<feBlend mode="normal" in="SourceGraphic" in2="effect1_dropShadow_297094_2114" result="shape"/>
</filter>
</defs>
</svg>
